<mxfile host="app.diagrams.net" modified="2024-04-04T01:49:29.328Z" agent="Mozilla/5.0 (Windows NT 10.0; Win64; x64) AppleWebKit/537.36 (KHTML, like Gecko) Chrome/122.0.0.0 Safari/537.36 OPR/108.0.0.0" etag="PyTYuYc1HlBwGMSYZcsT" version="24.2.1" type="github">
  <diagram name="Page-1" id="c4acf3e9-155e-7222-9cf6-157b1a14988f">
    <mxGraphModel dx="1066" dy="1563" grid="1" gridSize="10" guides="1" tooltips="1" connect="1" arrows="1" fold="1" page="1" pageScale="1" pageWidth="850" pageHeight="1100" background="none" math="0" shadow="0">
      <root>
        <mxCell id="0" />
        <mxCell id="1" parent="0" />
        <mxCell id="5d2195bd80daf111-18" value="&lt;p style=&quot;margin:0px;margin-top:4px;text-align:center;&quot;&gt;&lt;i&gt;&amp;lt;&amp;lt;Interface&amp;gt;&amp;gt;&lt;/i&gt;&lt;br&gt;&lt;b&gt;Interface&lt;/b&gt;&lt;/p&gt;&lt;hr size=&quot;1&quot;&gt;&lt;p style=&quot;margin: 0px 0px 0px 4px;&quot;&gt;&lt;br&gt;&lt;/p&gt;&lt;hr size=&quot;1&quot;&gt;&lt;p style=&quot;margin: 0px 0px 0px 4px;&quot;&gt;&lt;span style=&quot;background-color: initial;&quot;&gt;+perfil()&lt;/span&gt;&lt;br&gt;&lt;/p&gt;&lt;p style=&quot;margin: 0px 0px 0px 4px;&quot;&gt;&lt;span style=&quot;background-color: initial;&quot;&gt;+home&lt;/span&gt;&lt;span style=&quot;background-color: initial;&quot;&gt;()&lt;/span&gt;&lt;/p&gt;&lt;p style=&quot;margin: 0px 0px 0px 4px;&quot;&gt;&lt;span style=&quot;background-color: initial;&quot;&gt;+configuração&lt;/span&gt;&lt;span style=&quot;background-color: initial;&quot;&gt;()&lt;/span&gt;&lt;/p&gt;&lt;p style=&quot;margin: 0px 0px 0px 4px;&quot;&gt;+cadastroUsuário:&lt;span style=&quot;background-color: initial;&quot;&gt;()&lt;/span&gt;&lt;/p&gt;&lt;p style=&quot;margin: 0px 0px 0px 4px;&quot;&gt;+login&lt;span style=&quot;background-color: initial;&quot;&gt;()&lt;/span&gt;&lt;/p&gt;&lt;p style=&quot;margin: 0px 0px 0px 4px;&quot;&gt;+recuperarSenha()&lt;/p&gt;&lt;p style=&quot;margin: 0px 0px 0px 4px;&quot;&gt;+calendário()&lt;/p&gt;&lt;p style=&quot;margin: 0px 0px 0px 4px;&quot;&gt;+lembrete()&lt;/p&gt;&lt;p style=&quot;margin: 0px 0px 0px 4px;&quot;&gt;&lt;span style=&quot;background-color: initial;&quot;&gt;+listadeTarefas()&amp;nbsp;&lt;/span&gt;&lt;br&gt;&lt;/p&gt;&lt;p style=&quot;margin: 0px 0px 0px 4px;&quot;&gt;&lt;span style=&quot;background-color: initial;&quot;&gt;+alterarCordTela()&amp;nbsp;&lt;/span&gt;&lt;/p&gt;&lt;p style=&quot;margin:0px;margin-left:4px;&quot;&gt;&lt;br&gt;&lt;/p&gt;&lt;p style=&quot;margin:0px;margin-left:4px;&quot;&gt;&lt;br&gt;&lt;/p&gt;" style="verticalAlign=top;align=left;overflow=fill;fontSize=12;fontFamily=Helvetica;html=1;rounded=0;shadow=0;comic=0;labelBackgroundColor=none;strokeWidth=1" parent="1" vertex="1">
          <mxGeometry x="50" y="240" width="190" height="230" as="geometry" />
        </mxCell>
        <mxCell id="5d2195bd80daf111-19" value="&lt;p style=&quot;margin:0px;margin-top:4px;text-align:center;&quot;&gt;&lt;b&gt;Cliente&lt;/b&gt;&lt;/p&gt;&lt;hr size=&quot;1&quot;&gt;&lt;p style=&quot;margin:0px;margin-left:4px;&quot;&gt;-criarConta: String&lt;/p&gt;&lt;p style=&quot;margin:0px;margin-left:4px;&quot;&gt;&lt;br&gt;&lt;/p&gt;&lt;hr size=&quot;1&quot;&gt;&lt;p style=&quot;margin: 0px 0px 0px 4px;&quot;&gt;+cadastrarConta()&lt;/p&gt;&lt;p style=&quot;margin: 0px 0px 0px 4px;&quot;&gt;&lt;br&gt;&lt;/p&gt;&lt;div&gt;&lt;span style=&quot;background-color: initial;&quot;&gt;&lt;br&gt;&lt;/span&gt;&lt;/div&gt;&lt;p style=&quot;margin: 0px 0px 0px 4px;&quot;&gt;&lt;br&gt;&lt;/p&gt;&lt;div&gt;&lt;br&gt;&lt;/div&gt;" style="verticalAlign=top;align=left;overflow=fill;fontSize=12;fontFamily=Helvetica;html=1;rounded=0;shadow=0;comic=0;labelBackgroundColor=none;strokeWidth=1" parent="1" vertex="1">
          <mxGeometry x="410" y="300" width="190" height="130" as="geometry" />
        </mxCell>
        <mxCell id="SRDfbngRJq_bPD0gsB5e-22" value="0..*" style="text;html=1;align=center;verticalAlign=middle;resizable=0;points=[];autosize=1;strokeColor=none;fillColor=none;" parent="1" vertex="1">
          <mxGeometry x="230" y="310" width="40" height="30" as="geometry" />
        </mxCell>
        <mxCell id="SRDfbngRJq_bPD0gsB5e-23" value="1." style="text;html=1;align=center;verticalAlign=middle;resizable=0;points=[];autosize=1;strokeColor=none;fillColor=none;" parent="1" vertex="1">
          <mxGeometry x="370" y="310" width="30" height="30" as="geometry" />
        </mxCell>
        <mxCell id="wrMSa33s0lKAPkdrSBBs-24" style="edgeStyle=orthogonalEdgeStyle;rounded=0;orthogonalLoop=1;jettySize=auto;html=1;" edge="1" parent="1" source="SRDfbngRJq_bPD0gsB5e-44" target="wrMSa33s0lKAPkdrSBBs-12">
          <mxGeometry relative="1" as="geometry">
            <Array as="points">
              <mxPoint x="200" y="695" />
              <mxPoint x="330" y="695" />
            </Array>
          </mxGeometry>
        </mxCell>
        <mxCell id="SRDfbngRJq_bPD0gsB5e-44" value="Tarefas" style="swimlane;fontStyle=1;align=center;verticalAlign=top;childLayout=stackLayout;horizontal=1;startSize=26;horizontalStack=0;resizeParent=1;resizeParentMax=0;resizeLast=0;collapsible=1;marginBottom=0;whiteSpace=wrap;html=1;" parent="1" vertex="1">
          <mxGeometry x="120" y="740" width="160" height="178" as="geometry" />
        </mxCell>
        <mxCell id="SRDfbngRJq_bPD0gsB5e-45" value="-listadTarefas:&amp;nbsp;&lt;span style=&quot;text-wrap: nowrap;&quot;&gt;String&lt;/span&gt;&lt;div&gt;&lt;span style=&quot;background-color: initial;&quot;&gt;&lt;span style=&quot;text-wrap: nowrap;&quot;&gt;-datadTarefas: DateTime&lt;/span&gt;&lt;/span&gt;&lt;/div&gt;&lt;div&gt;&lt;span style=&quot;background-color: initial;&quot;&gt;&lt;span style=&quot;text-wrap: nowrap;&quot;&gt;-horadTarefas:&amp;nbsp;&lt;/span&gt;&lt;/span&gt;&lt;span style=&quot;text-wrap: nowrap; background-color: initial;&quot;&gt;DateTime&lt;/span&gt;&lt;/div&gt;&lt;div&gt;&lt;span style=&quot;background-color: initial;&quot;&gt;&lt;span style=&quot;text-wrap: nowrap;&quot;&gt;-importanciadTarefa:&amp;nbsp;&lt;/span&gt;&lt;/span&gt;&lt;span style=&quot;text-wrap: nowrap; background-color: initial;&quot;&gt;String&lt;/span&gt;&lt;/div&gt;" style="text;strokeColor=none;fillColor=none;align=left;verticalAlign=top;spacingLeft=4;spacingRight=4;overflow=hidden;rotatable=0;points=[[0,0.5],[1,0.5]];portConstraint=eastwest;whiteSpace=wrap;html=1;" parent="SRDfbngRJq_bPD0gsB5e-44" vertex="1">
          <mxGeometry y="26" width="160" height="64" as="geometry" />
        </mxCell>
        <mxCell id="SRDfbngRJq_bPD0gsB5e-46" value="" style="line;strokeWidth=1;fillColor=none;align=left;verticalAlign=middle;spacingTop=-1;spacingLeft=3;spacingRight=3;rotatable=0;labelPosition=right;points=[];portConstraint=eastwest;strokeColor=inherit;" parent="SRDfbngRJq_bPD0gsB5e-44" vertex="1">
          <mxGeometry y="90" width="160" height="8" as="geometry" />
        </mxCell>
        <mxCell id="SRDfbngRJq_bPD0gsB5e-47" value="&lt;div&gt;&lt;span style=&quot;text-wrap: nowrap;&quot;&gt;+criarTarefas()&lt;/span&gt;&lt;/div&gt;&lt;span style=&quot;text-wrap: nowrap;&quot;&gt;+definirTarefas()&lt;/span&gt;&lt;div&gt;&lt;span style=&quot;text-wrap: nowrap;&quot;&gt;+alterardasTarefas()&lt;/span&gt;&lt;/div&gt;&lt;div&gt;&lt;span style=&quot;text-wrap: nowrap; background-color: initial;&quot;&gt;+checkList(): bool&lt;/span&gt;&lt;br&gt;&lt;/div&gt;" style="text;strokeColor=none;fillColor=none;align=left;verticalAlign=top;spacingLeft=4;spacingRight=4;overflow=hidden;rotatable=0;points=[[0,0.5],[1,0.5]];portConstraint=eastwest;whiteSpace=wrap;html=1;" parent="SRDfbngRJq_bPD0gsB5e-44" vertex="1">
          <mxGeometry y="98" width="160" height="80" as="geometry" />
        </mxCell>
        <mxCell id="SRDfbngRJq_bPD0gsB5e-52" value="" style="endArrow=diamondThin;endFill=1;endSize=24;html=1;rounded=0;" parent="1" edge="1">
          <mxGeometry width="160" relative="1" as="geometry">
            <mxPoint x="240" y="340" as="sourcePoint" />
            <mxPoint x="400" y="340" as="targetPoint" />
          </mxGeometry>
        </mxCell>
        <mxCell id="wrMSa33s0lKAPkdrSBBs-28" style="edgeStyle=orthogonalEdgeStyle;rounded=0;orthogonalLoop=1;jettySize=auto;html=1;" edge="1" parent="1" source="SRDfbngRJq_bPD0gsB5e-76" target="wrMSa33s0lKAPkdrSBBs-12">
          <mxGeometry relative="1" as="geometry">
            <Array as="points">
              <mxPoint x="545" y="690" />
              <mxPoint x="350" y="690" />
            </Array>
          </mxGeometry>
        </mxCell>
        <mxCell id="SRDfbngRJq_bPD0gsB5e-76" value="&lt;p style=&quot;margin:0px;margin-top:4px;text-align:center;&quot;&gt;&lt;i&gt;&amp;lt;&amp;lt;Notification&amp;gt;&amp;gt;&lt;/i&gt;&lt;br&gt;&lt;b&gt;Lembretes&lt;/b&gt;&lt;/p&gt;&lt;hr size=&quot;1&quot; style=&quot;border-style:solid;&quot;&gt;&lt;div&gt;&lt;span style=&quot;text-wrap: nowrap;&quot;&gt;&amp;nbsp;-nomedLembretes:&amp;nbsp;&lt;/span&gt;&lt;span style=&quot;text-wrap: nowrap; background-color: initial;&quot;&gt;String&lt;/span&gt;&lt;span style=&quot;background-color: initial;&quot;&gt;&lt;span style=&quot;text-wrap: nowrap;&quot;&gt;&lt;br&gt;&lt;/span&gt;&lt;/span&gt;&lt;/div&gt;&lt;div&gt;&lt;span style=&quot;background-color: initial;&quot;&gt;&lt;span style=&quot;text-wrap: nowrap;&quot;&gt;&amp;nbsp;-datadLembretes:&amp;nbsp;&lt;/span&gt;&lt;/span&gt;&lt;span style=&quot;text-wrap: nowrap; background-color: initial;&quot;&gt;DateTime&lt;/span&gt;&lt;/div&gt;&lt;div&gt;&lt;span style=&quot;background-color: initial;&quot;&gt;&lt;span style=&quot;text-wrap: nowrap;&quot;&gt;&amp;nbsp;-horadLembretes:&amp;nbsp;&lt;/span&gt;&lt;/span&gt;&lt;span style=&quot;text-wrap: nowrap; background-color: initial;&quot;&gt;DateTime&lt;/span&gt;&lt;/div&gt;&lt;div&gt;&lt;span style=&quot;text-wrap: nowrap; background-color: initial;&quot;&gt;-idDoLembrete: Inteiro&lt;/span&gt;&lt;/div&gt;&lt;hr size=&quot;1&quot; style=&quot;border-style:solid;&quot;&gt;&lt;p style=&quot;margin:0px;margin-left:4px;&quot;&gt;&lt;span style=&quot;text-wrap: nowrap;&quot;&gt;+criarLembretes()&lt;/span&gt;&lt;span style=&quot;text-wrap: nowrap;&quot;&gt;&lt;br&gt;&lt;/span&gt;&lt;/p&gt;&lt;p style=&quot;margin:0px;margin-left:4px;&quot;&gt;&lt;span style=&quot;text-wrap: nowrap;&quot;&gt;+definirLembretes()&lt;/span&gt;&lt;br&gt;&lt;/p&gt;&lt;p style=&quot;margin:0px;margin-left:4px;&quot;&gt;&lt;span style=&quot;text-wrap: nowrap;&quot;&gt;+atualizarLembretes()&lt;/span&gt;&lt;/p&gt;&lt;p style=&quot;margin:0px;margin-left:4px;&quot;&gt;&lt;span style=&quot;text-wrap: nowrap;&quot;&gt;+definirHoraDLembrete()&lt;/span&gt;&lt;/p&gt;&lt;p style=&quot;margin:0px;margin-left:4px;&quot;&gt;&lt;span style=&quot;text-wrap: nowrap;&quot;&gt;+alterarHora()&lt;/span&gt;&lt;/p&gt;&lt;p style=&quot;margin:0px;margin-left:4px;&quot;&gt;&lt;span style=&quot;text-wrap: nowrap;&quot;&gt;+alterarData()&lt;/span&gt;&lt;/p&gt;" style="verticalAlign=top;align=left;overflow=fill;html=1;whiteSpace=wrap;" parent="1" vertex="1">
          <mxGeometry x="450" y="740" width="190" height="210" as="geometry" />
        </mxCell>
        <mxCell id="SRDfbngRJq_bPD0gsB5e-90" value="Dados" style="swimlane;fontStyle=1;align=center;verticalAlign=top;childLayout=stackLayout;horizontal=1;startSize=26;horizontalStack=0;resizeParent=1;resizeParentMax=0;resizeLast=0;collapsible=1;marginBottom=0;whiteSpace=wrap;html=1;" parent="1" vertex="1">
          <mxGeometry x="760" y="320" width="180" height="150" as="geometry" />
        </mxCell>
        <mxCell id="SRDfbngRJq_bPD0gsB5e-91" value="-email:&amp;nbsp;&lt;span style=&quot;text-wrap: nowrap;&quot;&gt;String&lt;/span&gt;&lt;div&gt;&lt;span style=&quot;text-wrap: nowrap;&quot;&gt;-senha:&amp;nbsp;&lt;/span&gt;&lt;span style=&quot;text-wrap: nowrap; background-color: initial;&quot;&gt;String&lt;/span&gt;&lt;/div&gt;&lt;div&gt;&lt;span style=&quot;text-wrap: nowrap; background-color: initial;&quot;&gt;-nomedUsuário:&amp;nbsp;&lt;/span&gt;&lt;span style=&quot;text-wrap: nowrap; background-color: initial;&quot;&gt;String&lt;/span&gt;&lt;/div&gt;&lt;div&gt;&lt;span style=&quot;text-wrap: nowrap; background-color: initial;&quot;&gt;-númerodTelefone: Inteiro&lt;/span&gt;&lt;/div&gt;&lt;div&gt;&lt;span style=&quot;background-color: initial;&quot;&gt;&lt;br&gt;&lt;/span&gt;&lt;/div&gt;&lt;div&gt;&lt;span style=&quot;background-color: initial;&quot;&gt;&lt;br&gt;&lt;/span&gt;&lt;/div&gt;" style="text;strokeColor=none;fillColor=none;align=left;verticalAlign=top;spacingLeft=4;spacingRight=4;overflow=hidden;rotatable=0;points=[[0,0.5],[1,0.5]];portConstraint=eastwest;whiteSpace=wrap;html=1;" parent="SRDfbngRJq_bPD0gsB5e-90" vertex="1">
          <mxGeometry y="26" width="180" height="64" as="geometry" />
        </mxCell>
        <mxCell id="SRDfbngRJq_bPD0gsB5e-92" value="" style="line;strokeWidth=1;fillColor=none;align=left;verticalAlign=middle;spacingTop=-1;spacingLeft=3;spacingRight=3;rotatable=0;labelPosition=right;points=[];portConstraint=eastwest;strokeColor=inherit;" parent="SRDfbngRJq_bPD0gsB5e-90" vertex="1">
          <mxGeometry y="90" width="180" height="18" as="geometry" />
        </mxCell>
        <mxCell id="SRDfbngRJq_bPD0gsB5e-93" value="&lt;div&gt;+backup(): void&lt;/div&gt;" style="text;strokeColor=none;fillColor=none;align=left;verticalAlign=top;spacingLeft=4;spacingRight=4;overflow=hidden;rotatable=0;points=[[0,0.5],[1,0.5]];portConstraint=eastwest;whiteSpace=wrap;html=1;" parent="SRDfbngRJq_bPD0gsB5e-90" vertex="1">
          <mxGeometry y="108" width="180" height="42" as="geometry" />
        </mxCell>
        <mxCell id="SRDfbngRJq_bPD0gsB5e-94" value="" style="endArrow=diamondThin;endFill=1;endSize=24;html=1;rounded=0;exitX=0;exitY=0.406;exitDx=0;exitDy=0;exitPerimeter=0;" parent="1" source="SRDfbngRJq_bPD0gsB5e-91" edge="1">
          <mxGeometry width="160" relative="1" as="geometry">
            <mxPoint x="750" y="372" as="sourcePoint" />
            <mxPoint x="600" y="372" as="targetPoint" />
            <Array as="points">
              <mxPoint x="600" y="372" />
            </Array>
          </mxGeometry>
        </mxCell>
        <mxCell id="wrMSa33s0lKAPkdrSBBs-29" style="edgeStyle=orthogonalEdgeStyle;rounded=0;orthogonalLoop=1;jettySize=auto;html=1;" edge="1" parent="1" source="wrMSa33s0lKAPkdrSBBs-12" target="5d2195bd80daf111-19">
          <mxGeometry relative="1" as="geometry" />
        </mxCell>
        <mxCell id="wrMSa33s0lKAPkdrSBBs-12" value="&lt;p style=&quot;margin:0px;margin-top:4px;text-align:center;&quot;&gt;&lt;b&gt;Usuário&lt;/b&gt;&lt;/p&gt;&lt;hr size=&quot;1&quot; style=&quot;border-style:solid;&quot;&gt;&lt;p style=&quot;margin:0px;margin-left:4px;&quot;&gt;-criarListadTarefas&lt;/p&gt;&lt;p style=&quot;margin:0px;margin-left:4px;&quot;&gt;-criarLembretes&lt;/p&gt;&lt;p style=&quot;margin:0px;margin-left:4px;&quot;&gt;-alterarCordTela&lt;/p&gt;&lt;p style=&quot;margin:0px;margin-left:4px;&quot;&gt;&lt;br&gt;&lt;/p&gt;&lt;hr size=&quot;1&quot; style=&quot;border-style:solid;&quot;&gt;&lt;p style=&quot;margin: 0px 0px 0px 4px;&quot;&gt;+alterarDatadTarefas&lt;/p&gt;&lt;p style=&quot;margin: 0px 0px 0px 4px;&quot;&gt;+alterarHoradTarefas&lt;/p&gt;&lt;p style=&quot;margin: 0px 0px 0px 4px;&quot;&gt;+cancelarTarefas&lt;/p&gt;&lt;p style=&quot;margin: 0px 0px 0px 4px;&quot;&gt;&lt;br&gt;&lt;/p&gt;" style="verticalAlign=top;align=left;overflow=fill;html=1;whiteSpace=wrap;" vertex="1" parent="1">
          <mxGeometry x="270" y="500" width="160" height="150" as="geometry" />
        </mxCell>
        <mxCell id="wrMSa33s0lKAPkdrSBBs-16" value="&lt;p style=&quot;margin:0px;margin-top:4px;text-align:center;&quot;&gt;&lt;b&gt;Class&lt;/b&gt;&lt;/p&gt;&lt;hr size=&quot;1&quot; style=&quot;border-style:solid;&quot;&gt;&lt;p style=&quot;text-wrap: nowrap; margin: 0px 0px 0px 4px;&quot;&gt;&lt;br&gt;&lt;/p&gt;&lt;hr size=&quot;1&quot; style=&quot;border-style:solid;&quot;&gt;&lt;p style=&quot;text-wrap: nowrap; margin: 0px 0px 0px 4px;&quot;&gt;&lt;span style=&quot;background-color: initial;&quot;&gt;+definirProfissão()&lt;/span&gt;&lt;br&gt;&lt;/p&gt;&lt;p style=&quot;text-wrap: nowrap; margin: 0px 0px 0px 4px;&quot;&gt;+definirObjetivo()&lt;/p&gt;&lt;p style=&quot;text-wrap: nowrap; margin: 0px 0px 0px 4px;&quot;&gt;+vefLogin(): bool&lt;/p&gt;&lt;p style=&quot;text-wrap: nowrap; margin: 0px 0px 0px 4px;&quot;&gt;+alterardadosCadastr(): void&lt;/p&gt;&lt;p style=&quot;text-wrap: nowrap; margin: 0px 0px 0px 4px;&quot;&gt;-email:&amp;nbsp;&lt;span style=&quot;background-color: initial;&quot;&gt;String&lt;/span&gt;&lt;/p&gt;&lt;p style=&quot;text-wrap: nowrap; margin: 0px 0px 0px 4px;&quot;&gt;-senha:&amp;nbsp;&lt;span style=&quot;background-color: initial;&quot;&gt;String&lt;/span&gt;&lt;/p&gt;&lt;p style=&quot;text-wrap: nowrap; margin: 0px 0px 0px 4px;&quot;&gt;&lt;span style=&quot;background-color: initial;&quot;&gt;-datadNascimento:&amp;nbsp;&lt;/span&gt;&lt;span style=&quot;background-color: initial;&quot;&gt;DateTime&lt;/span&gt;&lt;br&gt;&lt;/p&gt;&lt;p style=&quot;text-wrap: nowrap; margin: 0px 0px 0px 4px;&quot;&gt;-estatusdLogin:&amp;nbsp;&lt;span style=&quot;background-color: initial;&quot;&gt;String&lt;/span&gt;&lt;/p&gt;&lt;p style=&quot;text-wrap: nowrap; margin: 0px 0px 0px 4px;&quot;&gt;&lt;span style=&quot;background-color: initial;&quot;&gt;-dataCadastr:&amp;nbsp;&lt;/span&gt;&lt;span style=&quot;background-color: initial;&quot;&gt;DateTime&lt;/span&gt;&lt;/p&gt;&lt;p style=&quot;text-wrap: nowrap; margin: 0px 0px 0px 4px;&quot;&gt;-profissão: String&lt;/p&gt;&lt;p style=&quot;text-wrap: nowrap; margin: 0px 0px 0px 4px;&quot;&gt;-objetivo: String&lt;/p&gt;&lt;p style=&quot;text-wrap: nowrap; margin: 0px 0px 0px 4px;&quot;&gt;-listadTarefas: String&lt;/p&gt;&lt;p style=&quot;text-wrap: nowrap; margin: 0px 0px 0px 4px;&quot;&gt;-númerodTelefone: Inteiro&lt;/p&gt;&lt;p style=&quot;text-wrap: nowrap; margin: 0px 0px 0px 4px;&quot;&gt;-recuperaçãodSenha: String&lt;/p&gt;" style="verticalAlign=top;align=left;overflow=fill;html=1;whiteSpace=wrap;" vertex="1" parent="1">
          <mxGeometry x="650" y="-80" width="160" height="300" as="geometry" />
        </mxCell>
        <mxCell id="wrMSa33s0lKAPkdrSBBs-22" value="" style="endArrow=block;dashed=1;endFill=0;endSize=12;html=1;rounded=0;exitX=-0.011;exitY=0.7;exitDx=0;exitDy=0;exitPerimeter=0;" edge="1" parent="1" source="5d2195bd80daf111-19">
          <mxGeometry width="160" relative="1" as="geometry">
            <mxPoint x="390" y="390" as="sourcePoint" />
            <mxPoint x="240" y="390" as="targetPoint" />
          </mxGeometry>
        </mxCell>
        <mxCell id="wrMSa33s0lKAPkdrSBBs-32" value="" style="endArrow=block;dashed=1;endFill=0;endSize=12;html=1;rounded=0;entryX=0.125;entryY=-0.017;entryDx=0;entryDy=0;entryPerimeter=0;" edge="1" parent="1" target="SRDfbngRJq_bPD0gsB5e-44">
          <mxGeometry width="160" relative="1" as="geometry">
            <mxPoint x="140" y="470" as="sourcePoint" />
            <mxPoint x="140" y="630" as="targetPoint" />
          </mxGeometry>
        </mxCell>
        <mxCell id="wrMSa33s0lKAPkdrSBBs-34" value="" style="endArrow=block;dashed=1;endFill=0;endSize=12;html=1;rounded=0;exitX=0.019;exitY=0.783;exitDx=0;exitDy=0;exitPerimeter=0;" edge="1" parent="1" source="wrMSa33s0lKAPkdrSBBs-16" target="5d2195bd80daf111-19">
          <mxGeometry width="160" relative="1" as="geometry">
            <mxPoint x="420" y="210" as="sourcePoint" />
            <mxPoint x="580" y="210" as="targetPoint" />
          </mxGeometry>
        </mxCell>
        <mxCell id="wrMSa33s0lKAPkdrSBBs-35" value="&lt;p style=&quot;margin:0px;margin-top:4px;text-align:center;text-decoration:underline;&quot;&gt;&lt;b&gt;Object:Type&lt;/b&gt;&lt;/p&gt;&lt;hr size=&quot;1&quot; style=&quot;border-style:solid;&quot;/&gt;&lt;p style=&quot;margin:0px;margin-left:8px;&quot;&gt;field1 = value1&lt;br/&gt;field2 = value2&lt;br&gt;field3 = value3&lt;/p&gt;" style="verticalAlign=top;align=left;overflow=fill;html=1;whiteSpace=wrap;" vertex="1" parent="1">
          <mxGeometry x="660" y="540" width="160" height="90" as="geometry" />
        </mxCell>
        <mxCell id="wrMSa33s0lKAPkdrSBBs-36" value="&lt;p style=&quot;margin:0px;margin-top:4px;text-align:center;text-decoration:underline;&quot;&gt;&lt;b&gt;Object:Type&lt;/b&gt;&lt;/p&gt;&lt;hr size=&quot;1&quot; style=&quot;border-style:solid;&quot;/&gt;&lt;p style=&quot;margin:0px;margin-left:8px;&quot;&gt;field1 = value1&lt;br/&gt;field2 = value2&lt;br&gt;field3 = value3&lt;/p&gt;" style="verticalAlign=top;align=left;overflow=fill;html=1;whiteSpace=wrap;" vertex="1" parent="1">
          <mxGeometry x="420" y="50" width="160" height="90" as="geometry" />
        </mxCell>
      </root>
    </mxGraphModel>
  </diagram>
</mxfile>
